<svg xmlns="http://www.w3.org/2000/svg" enable-background="new 0 0 4000 3500" viewBox="0 0 4000 3500"><path fill="#8747ff" d="M2129.7,2824c-1158-30-1696-428-1778-981c-71.7-483.8,198-1093,790-1169s532,120,1062-44   s1195-203.6,1456,478.8C4012.4,2030.8,3287.7,2854,2129.7,2824z" class="color8747ff svgShape"/><path fill="#01dcb2" d="M1618.3,2723c0,0,35.3,8.3,49.3,66.3c-1.3,17-15.7,39-51,58.3c-35.3,19.3-41.7,46.7-69,55.3      c-27.3,8.7-93.3,1.3-110.7,1.3s-7-58.7,45-66.3c66.4-9.8,45.7-66.3,61.7-105.7C1559.7,2693,1595.7,2701.7,1618.3,2723z" class="color01dcb2 svgShape"/><path d="M1505.7,2909.7c-16.9,0-34.8-1.1-49-2c-8.7-0.5-15.7-1-19.8-1c-5.8,0-9.6-4.7-10.2-12.6c-1.2-16.9,14-52.7,54.8-58.7      c44.9-6.6,48.3-35.4,51.8-65.8c1.5-13,3.1-26.4,7.9-38.3c6.3-15.6,16.5-25.3,29.3-28.1c15-3.3,33.7,3.4,48.9,17.5      c5.2,1.5,37.2,12.9,50.5,68c0.1,0.3,0.1,0.5,0.1,0.8c-1.7,21.1-20.7,43.1-52.3,60.3c-16.9,9.2-27.1,20.5-36.2,30.4      c-10,11-18.6,20.4-33.2,25.1C1538,2908.7,1522.3,2909.7,1505.7,2909.7z M1578.6,2707.4c-2.4,0-4.7,0.2-6.9,0.7      c-11.3,2.5-20,10.9-25.8,25.1c-4.6,11.3-6.1,24.4-7.6,37c-3.6,31-7.3,63-56,70.2c-37.6,5.5-51.7,38-50.6,53.4c0.2,2.4,1,8,5.2,8      c4.3,0,11.3,0.4,20.1,1c26,1.6,69.6,4.2,89.8-2.2c13.3-4.2,21.6-13.2,31.1-23.7c9.3-10.2,19.9-21.8,37.5-31.5      c42.1-23,48.8-46.5,49.7-55.9c-13.5-55.3-47.1-64-47.4-64.1c-0.4-0.1-0.8-0.3-1.1-0.6      C1604.8,2713.7,1590.8,2707.4,1578.6,2707.4z" fill="#000000" class="color000 svgShape"/><path fill="#079a8a" d="M1616.7,2847.7c35.3-19.3,49.7-41.3,51-58.3c-2.1-8.9-4.8-16.6-7.7-23.3c-12.7,20.7-32.3,45.3-60.3,61      c-19.9,11.1-38.4,36.1-58.7,44.7c-31.2,13.3-65.7,11.8-110.2,9.7c-3.5,12.6-1.1,22.9,6.2,22.9c17.3,0,83.3,7.3,110.7-1.3      C1575,2894.3,1581.3,2867,1616.7,2847.7z" class="color079a8a svgShape"/><path d="M1505.7,2909.7c-16.9,0-34.8-1.1-49-2c-8.7-0.5-15.7-1-19.8-1c-2.9,0-5.4-1.3-7.3-3.6c-3.5-4.6-4-13-1.3-22.5      c0.3-1.1,1.4-1.9,2.5-1.8c43.6,2,78.1,3.6,109.1-9.5c10.6-4.5,21.1-14,31.3-23.2c8.8-7.9,17.8-16.1,27.2-21.3      c28.4-15.9,48-41.5,59.4-60.1c0.5-0.8,1.4-1.2,2.3-1.2c0.9,0.1,1.7,0.6,2.1,1.5c3.2,7.2,5.8,15.2,7.9,23.7      c0.1,0.3,0.1,0.5,0.1,0.8c-1.7,21.1-20.7,43.1-52.3,60.3c-16.9,9.2-27.1,20.5-36.2,30.4c-10,11-18.6,20.4-33.2,25.1      C1538,2908.7,1522.3,2909.7,1505.7,2909.7z M1432.8,2884c-1.6,7-1.3,13.2,1,16.2c0.9,1.1,1.9,1.7,3.3,1.7c4.3,0,11.3,0.4,20.1,1      c26,1.6,69.6,4.2,89.8-2.2c13.3-4.2,21.6-13.2,31.1-23.7c9.3-10.2,19.9-21.8,37.5-31.5l0,0c42.1-23,48.8-46.5,49.7-55.9      c-1.6-6.4-3.5-12.4-5.7-18.1c-12,18.7-31.3,42.4-58.6,57.7c-8.8,4.9-17.7,12.9-26.2,20.7c-10.5,9.5-21.3,19.3-32.7,24.1      C1510.5,2887.4,1476.1,2886,1432.8,2884z" fill="#000000" class="color000 svgShape"/><path fill="#ffffff" d="M1486.9,2837.2c-1.6,0.3-3.2,0.6-4.9,0.8c-52,7.7-62.3,66.3-45,66.3s83.3,7.3,110.7-1.3      c4.9-1.5,9-3.7,12.9-6.2C1545.8,2848.2,1513.7,2837,1486.9,2837.2z" class="colorfff svgShape"/><path d="M1505.7,2909.7c-16.9,0-34.8-1.1-49-2c-8.7-0.5-15.7-1-19.8-1c-5.8,0-9.6-4.7-10.2-12.6c-1.2-16.9,14-52.7,54.8-58.7      c1.5-0.2,3.1-0.5,4.8-0.8c0.3-0.1,0.7,0,1,0c26.1,0,60.1,10.7,75.5,61.4c0.3,1-0.1,2.2-1,2.8c-4.3,2.9-8.7,5-13.5,6.6      C1538,2908.7,1522.3,2909.7,1505.7,2909.7z M1487.1,2839.7c-1.7,0.3-3.2,0.6-4.8,0.8c-37.6,5.5-51.7,38-50.6,53.4      c0.2,2.4,1,8,5.2,8c4.3,0,11.3,0.4,20.1,1c26,1.6,69.6,4.2,89.8-2.2c3.8-1.2,7.3-2.8,10.7-4.9c-14.7-46.2-46-56-70.1-56      C1487.3,2839.7,1487.2,2839.7,1487.1,2839.7z" fill="#000000" class="color000 svgShape"/><path fill="#01dcb2" d="M2065.7,2735.7c0,0,28.7,43.3,10.7,72c-18,28.7-49.3,62-66,68.7c-16.7,6.7-23.3,29.3,29.3,30.7      c52.7,1.3,88-14.7,120.7-78.7c8.6-16.8,65-61.1,56.7-76c-31.3-56-64.6-39.1-96-57.3C2075,2668.3,2037,2689,2065.7,2735.7z" class="color01dcb2 svgShape"/><path d="M2045.5,2909.6c-1.9,0-3.9,0-5.9-0.1c-35.4-0.9-42.6-11.3-43.6-17.3c-1.3-7,4.3-14.5,13.5-18.1      c15.6-6.2,46.5-38.5,64.8-67.7c16.9-27-10.4-68.9-10.6-69.3c0,0,0,0,0-0.1c-12.4-20.1-13.7-37.6-3.6-47.9      c12-12.3,37.1-10.8,62.3,3.8c9.9,5.7,19.9,7.8,30.4,10.1c22,4.7,44.8,9.5,66.5,48.2c6.2,11-14.1,31.9-33.7,52      c-10.2,10.5-19.9,20.5-22.9,26.3c-16.2,31.8-33.3,52.4-53.8,64.8C2091.5,2904.8,2071.8,2909.6,2045.5,2909.6z M2067.8,2734.3      c1.5,2.3,29.2,45.2,10.7,74.7c-17,27-48.7,62.3-67.2,69.7c-6.8,2.7-11.2,8-10.4,12.6c0.5,2.9,4.9,12.4,38.9,13.2      c48.1,1.2,84.7-11.3,118.4-77.3c3.3-6.5,12.8-16.3,23.8-27.6c15.7-16.2,37.3-38.3,32.9-46.1c-20.6-36.7-41.3-41.1-63.2-45.8      c-10.5-2.2-21.3-4.5-31.9-10.6c-23.2-13.5-45.8-15.3-56.2-4.6C2055.2,2701.1,2056.7,2716.3,2067.8,2734.3z" fill="#000000" class="color000 svgShape"/><path fill="#079a8a" d="M2217,2752.3c-4.7-8.4-9.4-15.1-14.2-20.6c-8.4,19.8-21,42.8-37.8,56c-34,26.7-50.7,78.7-77.3,88     c-16,5.6-55.7,5.9-84.7,5.3c-9.8,9.2-7,25,36.7,26.1c52.7,1.3,88-14.7,120.7-78.7C2168.9,2811.5,2225.3,2767.2,2217,2752.3z" class="color079a8a svgShape"/><path d="M2045.5,2909.6c-1.9,0-3.9,0-5.9-0.1c-31.1-0.8-40.6-8.8-43.1-15.3c-1.9-5-0.1-10.6,4.7-15.1c0.5-0.4,1.1-0.7,1.8-0.7     c29.7,0.7,68.3,0.3,83.8-5.1c13.3-4.7,24.7-21.6,36.7-39.6c11-16.5,23.6-35.2,39.9-48c13.4-10.5,26.2-29.5,37-55     c0.3-0.8,1.1-1.4,1.9-1.5c0.9-0.1,1.7,0.2,2.3,0.8c5.1,5.9,9.9,12.8,14.5,21.1l0,0c6.2,11-14.1,31.9-33.7,52     c-10.2,10.5-19.9,20.5-22.9,26.3c-16.2,31.8-33.3,52.4-53.8,64.8C2091.5,2904.8,2071.8,2909.6,2045.5,2909.6z M2003.9,2883.5     c-1.7,1.8-4.2,5.2-2.7,9c1.3,3.4,7.6,11.3,38.5,12.1c48.1,1.2,84.7-11.3,118.4-77.3c3.3-6.5,12.8-16.3,23.8-27.6     c15.7-16.2,37.3-38.3,32.9-46.1l0,0c-3.6-6.4-7.4-12.2-11.4-17.1c-10.9,24.6-23.3,42.5-36.9,53.2c-15.7,12.3-28,30.6-38.8,46.8     c-13.1,19.5-24.3,36.4-39.2,41.6C2072.4,2883.6,2033.9,2884.1,2003.9,2883.5z" fill="#000000" class="color000 svgShape"/><path fill="#ffffff" d="M1989,2904.3c0,0,105.3,15.3,133.3-21.3c-13.3-28.7-41.3-45.3-74.7-47.3      C1980.4,2831.6,1989,2904.3,1989,2904.3z" class="colorfff svgShape"/><path d="M2037.4,2910.1c-25.6,0-46.8-3-48.7-3.3c-1.1-0.2-2-1.1-2.1-2.2c-0.2-1.4-3.9-35.5,15.7-56.3      c10.6-11.2,25.9-16.3,45.6-15.1c35.4,2.1,63.4,19.9,76.8,48.8c0.4,0.8,0.3,1.8-0.3,2.6      C2108.4,2905.3,2069.5,2910.1,2037.4,2910.1z M1991.3,2902.1c14.3,1.8,102.1,11.5,128.1-19.5c-12.9-26.3-39-42.5-71.9-44.5      c-18.1-1.1-32.1,3.5-41.6,13.6C1990.4,2868.2,1990.9,2894.8,1991.3,2902.1z" fill="#000000" class="color000 svgShape"/><path fill="#3b26fd" d="M1693,1814c-55,105-73.1,155.6-122,245c-82,150-109.3,224.7-104,282s47.3,319.3,56.7,379.3    c9.3,60,10.7,57.3,69.3,48c58.7-9.3,18.7-314.7,10.7-408c-8-93.3,142.7-263.3,189.3-319.3s16,22,10.7,90    c-5.3,68-9.3,208-5.3,242.7c4,34.7,145.3,216,201.3,304s74.7,93.3,74.7,93.3s84-30.7,50.7-96s-112-307-143-361    c34-165,37-180,54-230c53.4-157.1,33.1-250.7,11.7-313C2002.3,1639,1806,1598.2,1693,1814z" class="color3b26fd svgShape"/><path fill="#170fce" d="M1813.3 2022.1c-5.6-27.8-13.8-55.2-24.5-81.5-56.7 107.8-122.1 210.7-187.4 313.5-15 23.6-36.8 50.2-63.2 48.9 19.7 5 30.4 29.8 36.3 50.6 18.1 63.5 12 139.4 16.2 205.3 4.2 65.9 17.8 213.7-45.8 213.7 7.7-.9 36.3-2.5 48-4.3 58.7-9.3 18.7-314.7 10.7-408S1746.3 2097 1793 2041C1803 2029 1809.4 2023.2 1813.3 2022.1zM2125 2675c-33.3-65.3-112-307-143-361 34-165 37-180 54-230 53.4-157.1 33.1-250.7 11.7-313-2-5.8-4.3-11.4-6.9-16.9-47.1-33.4-106.8-49.1-164.1-41.9-26.3 3.3-53.8 12.3-69.8 33.4-2.1 2.7-4 5.8-4.1 9.3-.3 7 6.4 11.9 12.4 15.6 7 4.2 13.9 8.4 20.9 12.7l-4 .7c2.6.5 5.2 1 7.8 1.6 5.9 3.6 11.8 7.1 17.7 10.7-.9-2.5-2.2-4.8-3.9-6.9 72.8 24 122.8 99.9 136.9 176.8 15.4 84.3-2.6 170.6-17.6 255-5.5 31.2-11.1 63.5-28.7 89.8-14.5 21.6-36.1 37.3-57.1 52.5 24.7-.6 49.2-6.4 71.5-16.8-3.1 8.3-6.2 16.5-9.4 24.8 8.2 1.6 16.5 3.2 24.7 4.7-4.1 15.2 9.2 28.9 20.2 40.1 29.9 30.4 58.1 147.6 95.3 225.9 38.7 81.3 8.2 100-2.2 123.6C2131.2 2739.9 2141.6 2707.6 2125 2675z" class="color170fce svgShape"/><g><path d="M1799.7 1980.2c-.6 0-1.2-.2-1.7-.7-14.5-13.8-14.1-40.5.9-66.4 14.3-24.7 24.3-73.4 24.4-73.9.3-1.4 1.6-2.2 2.9-2 1.4.3 2.2 1.6 2 2.9-.4 2-10.3 50-25 75.4-13.6 23.5-14.4 48.3-1.8 60.3 1 1 1 2.5.1 3.5C1801 1979.9 1800.3 1980.2 1799.7 1980.2zM1763.2 1851.3c-.4 0-.8-.1-1.2-.3-15.6-8.9-57.8-7.7-58.2-7.7-1.4 0-2.5-1-2.6-2.4 0-1.4 1-2.5 2.4-2.6 1.8-.1 44-1.2 60.9 8.3 1.2.7 1.6 2.2.9 3.4C1764.9 1850.8 1764.1 1851.3 1763.2 1851.3zM2032.6 1924.2c-.5 0-1.1-.2-1.5-.5-7.2-5.6-15-10.8-23.3-15.4-1.2-.7-1.6-2.2-1-3.4.7-1.2 2.2-1.6 3.4-1 8.5 4.7 16.5 10 23.9 15.8 1.1.8 1.3 2.4.4 3.5C2034 1923.8 2033.3 1924.2 2032.6 1924.2zM1985.3 1897.3c-.3 0-.6-.1-.9-.2-35.6-14.4-66.3-15.6-66.6-15.6-1.4 0-2.5-1.2-2.4-2.6 0-1.4 1.2-2.4 2.6-2.4 1.3 0 31.8 1.3 68.3 16 1.3.5 1.9 2 1.4 3.3C1987.3 1896.7 1986.3 1897.3 1985.3 1897.3z" fill="#000000" class="color000 svgShape"/><path d="M1553.3,2775.9c-6.7,0-11.6-1.2-15.7-4.1c-9.1-6.6-11.8-21.3-16.4-51.1c-1.5-9.4-3.7-23.7-6.5-41.5     c-14.8-94-45.7-289.6-50.2-338c-2.8-29.8,3.4-63.9,19.4-107.3c16-43.4,43-99.4,84.9-176.1c25.7-47,43.1-83.7,61.5-122.5     c16.9-35.8,34.5-72.7,60.5-122.4c28.5-54.5,63.6-95.5,104.2-121.7c35.9-23.2,75.3-34,113.8-31.1c31.7,2.4,61.7,13.9,86.6,33.4     c25.1,19.5,44,46.1,54.5,76.8c22.3,64.9,41.1,159.4-11.7,314.6c-16.7,49.2-20.1,65.6-52.6,223.2l-1.2,5.6     c16.4,29.1,45.7,108.8,74.1,186c25.9,70.4,52.7,143.3,68.5,174.3c9.1,17.7,10.5,34.7,4.4,50.4c-12.9,32.9-54.6,48.5-56.4,49.1     c-0.5,0.2-1,0.2-1.5,0.1c-0.8-0.2-20.2-6.6-76.1-94.4c-20.4-32-51.4-75.5-84.4-121.6c-59-82.7-114.7-160.7-117.4-183.4     c-4-34.2-0.3-172,5.3-243.1c1.7-21.1,5.7-42.8,9.2-61.9c2.4-12.8,4.4-23.8,5.2-32c1.1-11.5-0.7-12.5-0.8-12.5     c-0.1-0.1-3.6-1.4-19.9,18.2c-3.6,4.3-7.8,9.2-12.4,14.8c-54.9,65.1-183.6,217.6-176.3,302.7c1.1,12.5,2.7,28.7,4.6,47.5     c6,59.4,15.1,149.2,16.1,223.2c1.2,90.4-9.7,136.2-33.4,140c-2.2,0.4-4.4,0.7-6.5,1C1572.2,2774.2,1561.4,2775.9,1553.3,2775.9z      M1693,1814l2.2,1.2c-26,49.6-43.5,86.6-60.4,122.3c-18.4,38.9-35.8,75.6-61.6,122.8c-41.8,76.5-68.7,132.2-84.6,175.4     c-15.7,42.7-21.8,76.1-19.1,105.2c4.5,48.3,35.3,243.8,50.1,337.7c2.8,17.7,5.1,32.1,6.5,41.5c4.3,27.7,6.9,42.4,14.4,47.9     c7.2,5.3,20.8,3.1,45.5-0.9c2.1-0.3,4.3-0.7,6.5-1c14.1-2.2,30.7-27.5,29.2-135c-1-73.7-10-163.4-16-222.8     c-1.9-18.8-3.5-35.1-4.6-47.6c-3.2-37.6,18.6-91.8,65-161.2c38.2-57.1,84.7-112.3,112.5-145.2c4.7-5.5,8.8-10.5,12.4-14.8     c15.8-18.9,21.7-21.5,25.9-19.6c6.7,3.1,4.3,17.6-1.7,50c-3.5,19-7.5,40.5-9.1,61.4c-5.4,69.4-9.2,208.8-5.3,242.2     c2.5,21.4,60.4,102.6,116.5,181.1c32.9,46.2,64.1,89.7,84.5,121.9c48.8,76.7,68.7,90,72.6,92c6.1-2.5,41.5-17.7,52.6-45.9     c5.6-14.3,4.2-29.8-4.2-46.2c-16-31.3-42.8-104.3-68.8-174.9c-28.6-77.7-58.1-158-74.2-186c-0.3-0.5-0.4-1.2-0.3-1.8l1.3-6.5     c32.5-157.8,35.9-174.3,52.7-223.8c52.3-153.8,33.7-247.2,11.7-311.4c-20.6-60.1-74.3-102-136.8-106.8     c-82.3-6.3-160,48.5-213.3,150.1L1693,1814z" fill="#000000" class="color000 svgShape"/></g><g><path fill="#01dcb2" d="M2261.7,1366.3c42.7,17.3,65.6,45.6,83.3,119.3c17.8,73.8,28.4,112,28.4,112s-140.4,44.9-115.1,118.2    C2179.7,1575,2219,1349,2261.7,1366.3z" class="color01dcb2 svgShape"/><path fill="#079a8a" d="M1691.7,1382.3l-57.3,164.7c0,0,6.7,35.3,34.7,37.3C1747,1557.3,1691.7,1382.3,1691.7,1382.3z" class="color079a8a svgShape"/><path d="M1668.8,1586.8c-29.6-2.1-36.9-39-36.9-39.4l4.9-0.9c0.1,0.3,6.7,33.5,32.4,35.3L1668.8,1586.8z" fill="#000000" class="color000 svgShape"/><path fill="#fea5df" d="M1786,1475c0,0-135,69-177,80s-67-96-10-124s116-46,164-75S1828,1454,1786,1475z" class="colorfea5df svgShape"/><path fill="#ea81ca" d="M1720.1,1494.1c0-22.2-6.7-44.4-18.8-62.9c1.1,20.1-2.1,43.4-19.1,54.1c-8.4,5.3-19.2,6.4-28.5,2.9l-1,0.9     c-19.8,2.6-39.5,5.2-59.3,7.7c-7,0.9-14.1,1.9-20.3,5.1c-2.3,1.2-4.5,2.7-6.4,4.5c4.1,29.5,21,54.3,42.3,48.7     c21.9-5.7,69.2-27.3,109.4-46.6C1719.8,1503.9,1720.1,1498.8,1720.1,1494.1z" class="colorea81ca svgShape"/><path d="M1603,1558.3c-13.8,0-26.4-11.5-33.8-31.5c-13-34.9-5.8-81.1,28.7-98c23.5-11.5,47.4-21.4,70.5-30.9      c33.5-13.9,65.2-27,93.4-43.9c9.3-5.6,18.4-6.1,26.3-1.5c17.9,10.5,25.2,43.2,24.3,69c-0.9,27.5-10.3,48.4-25.2,55.8      c-5.7,2.9-135.7,69.3-177.5,80.2C1607.4,1558,1605.2,1558.3,1603,1558.3z M1776.6,1354.2c-3.9,0-8,1.3-12.3,3.9      c-28.5,17.2-60.3,30.4-94,44.3c-23,9.5-46.8,19.4-70.2,30.8c-35.2,17.3-36.5,64.1-26.2,91.8c6,16.1,18.2,31.8,34.5,27.5      c41.3-10.8,175.1-79.1,176.5-79.8c0,0,0,0,0,0c13.2-6.6,21.6-25.9,22.4-51.5c1-29.4-8.2-56.6-21.8-64.6      C1782.7,1355,1779.7,1354.2,1776.6,1354.2z" fill="#000000" class="color000 svgShape"/><path fill="#01dcb2" d="M2297,1389.2c-18.2-31.6-211-132.2-329.7-113.6l-7.9-0.2c-133.8,12.9-267.8,106.9-267.8,106.9    s55.3,175-22.7,202c50.7-17.3,102.7-41.3,102.7-41.3l13.8-31.8c-21.8,53.5-35.9,108.4-65.1,179.8c-20.8,50.8-27.3,123-27.3,123    s68-18.2,185.3-0.3C1999,1832,2120,1873,2122,1913c39-148,68-242,91-339l1.5-11.1c-2.6,53.7,7.5,106.1,42.5,146.1    c18.1,20.6,99.3,54.8,113.3-16.7C2408.3,1499,2297,1389.2,2297,1389.2z" class="color01dcb2 svgShape"/><path fill="#079a8a" d="M2369.9,1535.1c-20.7-94.4-72.9-145.9-72.9-145.9c-12.8-22.2-111.7-78.4-210.5-103.5    c39.4,22.5,78.7,44.9,118.1,67.4c11.1,6.3,22.3,12.7,31.7,21.3c29.9,27.1,37.5,71.4,35,111.7c-2.5,40.3-13.3,79.9-12.7,120.3    c0.1,9.5,1.2,19.8,7.4,27c10.5,12.1,30.4,9.6,44.4,1.9C2345.5,1616,2361.7,1574.5,2369.9,1535.1z" class="color079a8a svgShape"/><path fill="#50ffdd" d="M2046.6,1839.1c-70.6-45-166-38.5-233.7-85.9c-55.9-77.9,18.8-262.7,53.4-345.5    c-19.2,22.1-100.8,109.3-94.7,135.3c0,0,13.8-31.8,13.8-31.8c-21.6,59.5-94.3,246.2-92.4,302.8c23.6-27.9,358.6,16.5,401.4,65.4    C2083.3,1862.2,2065,1849.1,2046.6,1839.1z" class="color50ffdd svgShape"/><path d="M2122,1915.5c-0.1,0-0.2,0-0.3,0c-1.2-0.1-2.2-1.1-2.2-2.4c-0.9-17.4-27.8-37.1-75.7-55.6     c-44.2-17-104.7-32.1-165.8-41.4c-115.4-17.5-183.6,0.1-184.3,0.3c-0.8,0.2-1.6,0-2.3-0.5c-0.6-0.5-1-1.3-0.9-2.1     c0.1-0.7,6.8-73.1,27.5-123.7c15.7-38.4,26.8-71.4,37.6-103.3c4.6-13.7,9.1-26.9,13.7-39.9c-12.4,5.6-56.7,25.2-99.5,39.9     c0,0,0,0,0,0c-1.3,0.4-2.7-0.2-3.2-1.6c-0.4-1.3,0.2-2.7,1.5-3.2c74.8-25.9,21.6-197.2,21.1-198.9c-0.3-1,0.1-2.2,0.9-2.8     c0.3-0.2,34.2-23.9,84-48.8c46-23,115.4-51.8,184.9-58.5c0.1,0,0.2,0,0.3,0l7.7,0.2c119.5-18.6,312.2,81.9,331.8,114.5     c2.8,2.9,29.3,30.7,51.2,79.6c13.5,30.2,22.6,62.4,27.2,95.8c5.7,41.7,4.1,85.4-4.6,129.7c-4.6,23.3-16.9,38.2-35.7,43.3     c-31.3,8.4-70.6-12.4-82-25.5c-27-30.8-41.4-71.4-43.2-121.3c-12.5,51.1-26.8,102.6-43.1,161.3c-13.1,47.1-27.9,100.4-44.4,163     C2124.1,1914.7,2123.1,1915.5,2122,1915.5z M1779.5,1803.4c27.4,0,60.7,2,99.2,7.8c111.4,16.9,225,53.1,243.3,92.1     c15.5-58.7,29.5-109.1,42-153.9c17.9-64.4,33.3-119.9,46.6-175.9c0.2-0.7,0.6-1.2,1.2-1.6c0.5-24.8,3.9-51.7,10.2-80.7     c0.3-1.3,1.6-2.2,3-1.9c1.3,0.3,2.2,1.6,1.9,3c-20.5,94.9-9.7,167.3,32.1,215.2c11.1,12.7,48.8,31.5,76.9,23.9     c17-4.6,27.8-17.8,32.1-39.4c19.5-99.1-1.3-175.6-22.1-222.3c-22.6-50.7-50.2-78.2-50.5-78.5c-0.2-0.2-0.3-0.3-0.4-0.5     c-8.3-14.4-58.9-47-126-74.5c-45.7-18.7-132.6-48.6-201.2-37.8c-0.2,0-0.3,0-0.5,0l-7.7-0.2c-68.6,6.6-137.4,35.2-182.9,58     c-43.6,21.8-75,42.6-82,47.4c2.6,8.7,13.9,48.1,17.5,89.6c2.4,27.7,1,50.9-4.2,69.1c-3.9,13.5-9.8,24.2-17.7,32     c38.7-14.4,73.7-30.3,79.6-33l13.4-30.9c0.5-1.3,2-1.8,3.3-1.3c1.3,0.5,1.9,2,1.3,3.2c-10,24.6-18.5,49.7-27.4,76.2     c-10.8,32-21.9,65-37.7,103.6c-17.8,43.6-25.2,103.9-26.8,118.8C1705.4,1808.7,1734.5,1803.4,1779.5,1803.4z" fill="#000000" class="color000 svgShape"/><path fill="#fea5df" d="M1713,1221c0,0-47,102-46,180s-29,175-90,152s-82-88-44-182s125-223,170-250s138-48,152,20     c3.6,17.3-9.3,18.1-20.7,30c0,27.3-26.6,37.5-48,38.7C1753.1,1211.5,1713,1221,1713,1221z" class="colorfea5df svgShape"/><path fill="#ea81ca" d="M1852.4,1155.7c-0.6-0.1-1.1-0.1-1.7-0.1c-5.7,0.3-10,5-14.6,8.4c-6.5,4.8-14.4,7.4-22.2,9.8     c-2.8,0.9-5.5,1.8-8.3,2.6c-8.6,2.7-17.2,5.5-26,7.4c-1.8,0.4-3.7,0.8-5.3,1.7c-1.7,0.9-3,2.2-4.4,3.5     c-9.7,9.2-19.8,18-30.2,26.4c13.8-2.5,30.9-5,46.6-5.9c21.4-1.2,48-11.3,48-38.7C1841.1,1163.9,1848.4,1160.8,1852.4,1155.7z" class="colorea81ca svgShape"/><path fill="#ffcaef" d="M1553.5,1442.9c-2-113.8,49.5-187.9,100.5-265.4c4-6.1,6-13.3,9.3-19.9c-45.3,52-101.7,142.6-130.3,213.4     c-38,94-17,159,44,182c30.7,11.6,53.6-7.3,68.6-38.8C1636.6,1513.2,1555,1526,1553.5,1442.9z" class="colorffcaef svgShape"/><path d="M1857.4,1140.5c-4.1-19.8-14.9-33.7-32.1-41.2c-34.1-15-89.2-1.1-123.7,19.6c-21.6,13-53.8,49.6-88.4,100.6      c-34.2,50.5-64.3,105.4-82.6,150.6c-21.6,53.5-25.1,99.9-10,134.3c10.3,23.5,29.5,41.2,55.4,50.9c6.4,2.4,12.6,3.6,18.6,3.6      c8.7,0,16.9-2.5,24.5-7.5c-3.3,1,0.4-2.3-2.8-1.2c-3.8,1.3-14,3.9-17.5,3.5c-6.7,0.7-13.7-0.3-21-3c-25-9.4-42.7-25.7-52.6-48.3      c-14.5-33.2-11.1-78.3,10-130.5c38.2-94.6,125.1-222.5,169-248.8c23.8-14.3,57.5-25.3,86.7-25.3c11.8,0,23,1.8,32.4,5.9      c15.6,6.9,25.4,19.5,29.2,37.7c2.2,10.5-2.2,13.7-9.5,19c-3.3,2.4-6.9,5-10.5,8.8c-0.4,0.5-0.7,1.1-0.7,1.7      c0,32-38,35.7-45.6,36.2c-33,1.8-73.4,11.3-73.8,11.4c-0.7,0.2-1.4,0.7-1.7,1.4c-0.5,1-47.2,103.4-46.2,181.1      c0.3,22.2-2,46.9-7.1,69.9c-1.2,5.3-0.9,8.4,0,9.2c1.2,1,3.4-1.7,4.9-8.5c5.2-23.3,7.5-48.2,7.2-70.6      c-0.9-72.2,40.2-166.5,45.3-177.8c6.9-1.6,42.3-9.4,71.7-11c22.9-1.3,49.7-12.6,50.3-40.1c3.1-3.1,6.3-5.4,9.2-7.5      C1853.6,1159,1860.3,1154.2,1857.4,1140.5z" fill="#000000" class="color000 svgShape"/><path d="M1713,1223.5c-1.3,0-2.4-1-2.5-2.4c-0.1-1.4,1-2.6,2.3-2.6c0.3,0,33.2-2.2,52.2-25.1c18.2-21.8-4.8-42.7-5.7-43.5      c-1-0.9-1.1-2.5-0.2-3.5c0.9-1,2.5-1.1,3.5-0.2c0.3,0.2,27.6,24.9,6.3,50.5c-20.5,24.5-54.3,26.8-55.8,26.9      C1713.1,1223.5,1713,1223.5,1713,1223.5z" fill="#000000" class="color000 svgShape"/><path d="M1777,1185.5c-1.3,0-2.4-1-2.5-2.4c-0.1-1.4,1-2.6,2.4-2.6c14.1-0.8,23.1-4.9,26.7-12.3c7.7-15.8-10.6-42.2-10.8-42.4      c-0.8-1.1-0.5-2.7,0.6-3.5c1.1-0.8,2.7-0.5,3.5,0.6c0.8,1.2,20.2,29,11.2,47.5c-4.4,9.1-14.8,14.2-30.9,15.1      C1777.1,1185.5,1777,1185.5,1777,1185.5z" fill="#000000" class="color000 svgShape"/><path d="M1808.1,1173.9c-1.3,0-2.4-1-2.5-2.4c-0.1-1.4,1-2.6,2.4-2.6c14.1-0.7,23-4.3,26.4-10.7c4.6-8.5-1.7-19.4-1.8-19.5      c-0.7-1.2-0.3-2.7,0.9-3.4c1.2-0.7,2.7-0.3,3.4,0.9c0.3,0.5,7.8,13.5,1.9,24.4c-4.4,8.1-14.7,12.6-30.6,13.3      C1808.2,1173.9,1808.2,1173.9,1808.1,1173.9z" fill="#000000" class="color000 svgShape"/><path fill="#fea5df" d="M2302.3,1265.4c-19,14.6-54,31.3-20,76.5s48,40.8,42.7,76.5s-82.7,173.7-70,238.5     c12.7,64.8,46.7,76,94.7,64.8c48-11.2,86.7-79.9,72-227.9c-14.7-148-10.5-229.9-57.3-251.3     C2335,1229.1,2326.2,1247.1,2302.3,1265.4z" class="colorfea5df svgShape"/><path fill="#ffcaef" d="M2355.1,1676.6c-20.1,0.4-41-8.2-51.8-25.2c-10-15.9-9.9-36-8.8-54.8c2.6-47.5,8.7-94.7,18.2-141.3     c-22.8,56.4-67.5,151.2-57.6,201.6c12.7,64.8,46.7,76,94.7,64.8c24.4-5.7,46.4-26.2,60.2-64.5     C2393.4,1668.1,2374.7,1676.2,2355.1,1676.6z" class="colorffcaef svgShape"/><path d="M2320.3,1728.1c-13.6,0-24.9-3.1-34.4-9.2c-16.5-10.7-27.4-30.8-33.4-61.4c-8.6-44.2,23.6-121.2,47.2-177.5     c11.3-27,21.1-50.3,22.8-61.8c3.5-23.2-1.3-28.3-15.6-43.4c-7-7.4-15.7-16.7-26.6-31.2c-11.5-15.3-16.2-28.6-14.4-40.6     c2.5-16.2,16.9-26.5,28.4-34.7c2.3-1.6,4.4-3.2,6.4-4.7l0,0c4.9-3.8,9.1-7.4,13.2-11c15.5-13.6,26.7-23.5,51.4-12.2     c18.6,8.5,30.3,26.2,37.7,57.4c6.9,28.8,10.1,67.9,14.1,117.3c1.9,23.4,4.1,50,6.9,78.7c6.9,69.5,2.6,125.4-12.6,166.4     c-16.9,45.2-42.6,59.8-61.3,64.2C2339.1,1726.8,2329.2,1728.1,2320.3,1728.1z M2303.9,1267.4c-2.1,1.6-4.2,3.1-6.6,4.8     c-11.4,8.1-24.2,17.3-26.4,31.4c-1.6,10.6,2.8,22.6,13.4,36.8c10.8,14.3,19.3,23.5,26.3,30.8c14.6,15.6,20.7,22,16.9,47.6     c-1.8,12.1-11.2,34.6-23.1,63c-23.3,55.7-55.2,131.9-46.9,174.6c5.7,29.2,15.9,48.3,31.2,58.2c14.5,9.4,33.7,10.9,60.4,4.7     c25-5.8,45-26.9,57.7-61.1c15-40.2,19.2-95.4,12.4-164.1c-2.8-28.7-5-55.3-6.9-78.8c-8.1-99.2-12.5-153.9-49-170.5     c-21.7-9.9-30.9-1.9-46,11.4C2313.4,1259.6,2308.9,1263.6,2303.9,1267.4L2303.9,1267.4z" fill="#000000" class="color000 svgShape"/><path fill="#ea81ca" d="M2302.3,1265.4c17.5-13.4,26.9-26.6,42.2-27.5c-3.6-2.4-7.2-4.6-8-4.9c-31.6-11.9-53.3,31-54.9,47.6     c0.1,0.1,0.1,0.2,0.1,0.4C2288.4,1275,2296.2,1270.1,2302.3,1265.4z" class="colorea81ca svgShape"/><path d="M2281.8 1283.6c-.2 0-.5 0-.7-.1-.8-.2-1.5-.9-1.7-1.7-.2-.4-.3-.9-.2-1.3 1.2-12.4 12.2-36.2 28.9-46.6 9.4-5.9 19.3-6.9 29.3-3.1 1.4.5 6.4 3.8 8.5 5.2.9.6 1.3 1.7 1 2.7-.3 1-1.2 1.8-2.3 1.8-10.1.6-17.7 7.3-27.4 15.8-3.9 3.4-8.4 7.3-13.4 11.2 0 0 0 0 0 0-2 1.6-4.2 3.1-6.5 4.8-4.7 3.3-9.5 6.8-13.8 10.7C2283 1283.3 2282.4 1283.6 2281.8 1283.6zM2279.5 1281.9C2279.5 1281.9 2279.5 1281.9 2279.5 1281.9 2279.5 1281.9 2279.5 1281.9 2279.5 1281.9zM2325.7 1233.5c-5.1 0-10.1 1.5-15 4.6-13.2 8.2-22.1 25.4-25.3 36.7 3-2.3 6-4.5 9-6.6 2.3-1.6 4.4-3.2 6.4-4.7 4.9-3.8 9.1-7.4 13.2-11 8.3-7.3 15.3-13.4 23.8-15.9-1.1-.7-1.9-1.1-2.1-1.2C2332.3 1234.1 2329 1233.5 2325.7 1233.5zM2302.3 1265.4L2302.3 1265.4 2302.3 1265.4zM2087 1931c-6.8 0-11.9-.6-12.6-.7-1.4-.2-2.3-1.4-2.2-2.8.2-1.4 1.4-2.3 2.8-2.2 11.7 1.4 42.4 1.8 44.4-12.7.2-1.4 1.5-2.3 2.8-2.1 1.4.2 2.3 1.4 2.1 2.8C2122.4 1928.5 2101.2 1931 2087 1931z" fill="#000000" class="color000 svgShape"/></g><g><path fill="#fea5df" d="M2161.3,1223.6c0,0-64.8,105-83.3,127.3c-48.7,58.7-158,30-111.3-62c11.5-22.7,52-56.7,65.3-101.3      C2045.3,1143,2175.3,1140.3,2161.3,1223.6z" class="colorfea5df svgShape"/><path fill="#ea81ca" d="M1963.9,1358.9c22.1,31.5,81.6,31.2,114.1-7.9c15.1-18.2,61.2-91.8,77.5-118c-1.2-7.4-6.7-14-13.5-17.7      c-7.7-4.2-16.7-5.3-25.5-5.7c-17.7-0.9-35.5,0.4-52.8,3.8c-10.5,2.1-21.2,5.1-29.8,11.5c-17.6,13-23.1,37.3-20.9,59      c0.4,4,2,8.9,6,9.2l-2-2c10.5,2.5,21.7,6,27.7,15c5.8,8.5,5.2,20.1,1.5,29.7c-5.9,15.4-19.5,27.7-35.4,32.1      c-15.9,4.4-33.9,0.7-46.8-9.6C1963.9,1358.5,1963.9,1358.7,1963.9,1358.9z" class="colorea81ca svgShape"/><path d="M2013.3,1384c-14,0-27.3-3.6-37.7-10.5c-25.7-16.9-29.9-48.9-11.2-85.7c4.2-8.3,12-17.8,21-28.8      c15.9-19.5,35.7-43.7,44.2-72.1c8-26.9,52.6-38.1,87.1-30.1c35.2,8.2,52.7,33.3,47.1,67.2c-0.1,0.3-0.2,0.6-0.3,0.9      c-2.7,4.3-65.1,105.4-83.5,127.6c-13.2,15.9-31.6,26.6-52,30.2C2023,1383.6,2018.1,1384,2013.3,1384z M2093.6,1159.2      c-28.1,0-54.1,11.7-59.2,29.1c-8.7,29.3-28.9,54-45.1,73.8c-8.8,10.8-16.4,20.1-20.4,27.9c-17.7,34.8-14.2,63.7,9.5,79.3      c25.4,16.7,70.7,12.6,97.7-20c17.6-21.2,78.4-119.4,82.9-126.6c7.2-44.3-27.9-57.4-43.3-61      C2108.4,1160,2100.9,1159.2,2093.6,1159.2z M2161.3,1223.6L2161.3,1223.6L2161.3,1223.6z" fill="#000000" class="color000 svgShape"/><path fill="#fea5df" d="M2257.9,1141.7c0,0,2.3,31.4-111.3,107.2c-39,26-109.7,58.7-165.7,31.4c-113.8-55.6-58.3-186.1-9.3-261.3     C2043.7,908.3,2269.5,1013.8,2257.9,1141.7z" class="colorfea5df svgShape"/><path fill="#ffcaef" d="M2127.3,1260.8c-34.1,8-116.5,17.3-164.5-38.3c-64.1-74.2,3.3-186.1,30.7-227.5     c-8.2,6.4-15.6,14.4-21.8,23.9c-49,75.3-104.5,205.8,9.3,261.3C2028.7,1303.6,2086.9,1283.4,2127.3,1260.8z" class="colorffcaef svgShape"/><path fill="#5459fd" d="M2272.9,1055c-9.9-5.6-19.9,6.3-30.3,22.7c0,0,29.8-76.7-10.9-144.5c-74.7-124.4-122,1-122,1     s-35.8-104.6-103.2-61.3c-42.9,27.5-30.8,81.1-20,123.4c49.7-31.1,122.7-21.1,180.6,11c63.6,70.3,33.3,144.8,4.8,197.8     c-9.7,18.1-18,29.5-26.8,43.7c3.1-4.6,79.7-27.9,122.3-75.9C2308,1127.2,2293.6,1066.7,2272.9,1055z" class="color5459fd svgShape"/><path fill="#170fce" d="M2272.9 1055c-9.3-5.2-18.6 4.9-28.3 19.6 2.5 4.4 5.4 8.7 8 13.1 14.9 24.8 20.4 54.7 16.5 83.3C2307.6 1125.5 2293.3 1066.5 2272.9 1055zM2118.5 948.6c4.7-2.8 8.2-7.2 12.4-10.8 15-13.2 38-14.9 56.3-6.8 18.2 8.1 31.8 24.6 39.5 43.1 7.7 18.4 9.9 38.7 10.2 58.6.1 11.2-.3 22.8 3.6 33.3 1 2.6 2.2 5.2 3.5 7.6 5.4-16.6 22.8-81.9-12.3-140.5-74.7-124.4-122 1-122 1s-35.8-104.6-103.2-61.3c-18.2 11.7-26.5 28-29.2 46.2 8.4-4 17-7.5 26-9.8 14.8-3.6 31.1-3.4 44.6 3.9 12.4 6.7 21 18.5 31.9 27.4C2090.6 949.6 2106.4 955.7 2118.5 948.6z" class="color170fce svgShape"/><path d="M2145,1251.3c-0.5,0-0.9-0.1-1.4-0.4c-1.1-0.7-1.5-2.3-0.8-3.4c2.6-4.2,5.3-8.3,7.8-12.2c6-9.2,12.2-18.7,19-31.4     c31.6-58.9,55.9-128-4.2-194.6c-62.9-34.8-132.6-39.1-177.7-10.9c-0.7,0.4-1.5,0.5-2.3,0.2s-1.3-0.9-1.5-1.7     c-9.8-38.5-24.7-96.7,21.1-126.1c17-10.9,33.5-13.6,49.2-8.2c30.8,10.7,49.3,49.8,55.5,64.9c6.4-14.2,25.1-49.1,54-51.7     c22.9-2.1,46.5,16.8,70,56.1c21.3,35.6,23.2,73.5,21,99.1c-1.1,13-3.3,24.2-5.4,32.5c7.8-9.7,16-15.5,24.7-10.7l0,0     c9.6,5.4,17.4,19.7,20.4,37.3c2.4,14.2,4.7,50.8-25.2,84.4c-32.4,36.4-84,58.7-108.8,69.4c-6.4,2.7-12.4,5.3-13.5,6.3     C2146.5,1251,2145.8,1251.3,2145,1251.3z M2146.9,1250.4L2146.9,1250.4L2146.9,1250.4z M2147.1,1250.2     C2147.1,1250.2,2147.1,1250.2,2147.1,1250.2C2147.1,1250.2,2147.1,1250.2,2147.1,1250.2z M2058.4,975c5.1,0,10.2,0.2,15.5,0.7     c31.2,2.6,64.7,13.1,94.3,29.5c0.2,0.1,0.5,0.3,0.6,0.5c28.7,31.6,41.3,67.7,37.6,107.3c-3.3,35.5-19.1,68.5-32.4,93.4     c-6.9,12.8-13.1,22.4-19.2,31.7c-0.9,1.4-1.8,2.8-2.7,4.2c1.8-0.8,3.8-1.7,6.3-2.7c24.5-10.6,75.4-32.6,107-68.2     c28.5-32,26.3-66.8,24-80.3c-2.7-15.9-9.7-29.2-17.9-33.8l0,0c-6.8-3.8-14.6,2.5-27,21.8l-2.1-1.3l-2.3-0.9     c0.3-0.8,29.1-76-10.7-142.3c-22.5-37.5-44.5-55.5-65.3-53.7c-32.4,2.9-52.1,53.8-52.3,54.3c-0.4,1-1.3,1.6-2.3,1.6c0,0,0,0,0,0     c-1.1,0-2-0.7-2.3-1.7c-0.2-0.6-19.3-55.4-54.6-67.7c-14.2-4.9-29.2-2.4-44.8,7.6c-41.5,26.6-29.2,80.3-19.8,117.4     C2007.8,980.9,2031.8,975,2058.4,975z" fill="#000000" class="color000 svgShape"/><path fill="#fea5df" d="M2211.3,1117.7c-5.5-3.2-13.1-6-18.6-1.9c-14.8,11.2-38,63.8-38,63.8c1.6,7.3,5.4,13.2,11.3,16.6      c14.7,8.5,36.7-2.2,49.2-23.9C2227.8,1150.6,2226,1126.2,2211.3,1117.7z" class="colorfea5df svgShape"/><path fill="#e874ca" d="M2221.3,1154.8c-29.7,44.8-66.6,24.8-66.6,24.8c1.6,7.3,5.4,13.2,11.3,16.6c14.7,8.5,37.1-2,49.2-23.9      C2220.2,1163.3,2222.4,1167.7,2221.3,1154.8z" class="colore874ca svgShape"/><path d="M2177.2,1201.6c-4.5,0-8.7-1.1-12.5-3.3c-6.3-3.6-10.6-9.9-12.5-18.2c-0.3-1.3,0.5-2.7,1.9-3c1.3-0.3,2.7,0.5,3,1.9       c1.6,6.9,5.1,12.1,10.1,15c6.4,3.7,14.5,3.4,23.1-0.7c8.9-4.3,16.9-12.2,22.7-22.3s8.6-21,7.9-30.8       c-0.7-9.5-4.5-16.7-10.9-20.4c-4.7-2.7-10.5-3.3-16.7-1.6c-1.3,0.3-2.7-0.4-3.1-1.8c-0.4-1.3,0.4-2.7,1.8-3.1       c7.5-2,14.6-1.2,20.5,2.1c7.8,4.5,12.6,13.2,13.4,24.3c0.8,10.8-2.3,22.8-8.6,33.7s-15.1,19.5-24.9,24.3       C2187.3,1200.4,2182.1,1201.6,2177.2,1201.6z" fill="#000000" class="color000 svgShape"/><path d="M2191.5 1175.2c-.4 0-.8-.1-1.1-.3-1-.5-1.5-1.5-1.4-2.6.9-5.7.2-9.8-2.1-12.3-2.5-2.7-6.3-2.5-6.3-2.5-1.4.1-2.6-1-2.6-2.3-.1-1.4.9-2.6 2.3-2.7.3 0 6.1-.4 10.3 4.1 2.1 2.3 3.3 5.3 3.7 9 13.2-17.8 1.7-31.7 1.2-32.3-.9-1-.8-2.6.3-3.5 1-.9 2.6-.8 3.5.3.2.2 17.4 20.7-5.9 44.4C2192.8 1174.9 2192.2 1175.2 2191.5 1175.2zM2178.4 1125.5c-.8 0-1.5-.3-2-1-.8-1.1-.6-2.7.5-3.5 4.9-3.7 10-6.2 15.2-7.6 1.3-.3 2.7.4 3.1 1.8.4 1.3-.4 2.7-1.8 3.1-4.5 1.2-9.1 3.5-13.4 6.7C2179.5 1125.3 2178.9 1125.5 2178.4 1125.5zM2105.4 1076.9c-3 7.5-.2 15.7 6.2 18.3 6.5 2.6 14.2-1.3 17.2-8.9 3-7.5.2-15.7-6.2-18.3C2116.2 1065.5 2108.5 1069.4 2105.4 1076.9z" fill="#000000" class="color000 svgShape"/><ellipse cx="1997.4" cy="1057.3" rx="15.6" ry="11.3" transform="rotate(-53.949 1997.519 1057.277)" fill="#000000" class="color000 svgShape"/><path fill="#e874ca" d="M2063.7,1144.3c-27.7,0-56.8-1.6-82.9-9.6c-19.4,77.3,78,53.5,100.7,12.9L2063.7,1144.3z" class="colore874ca svgShape"/><path d="M2012.1 1188.1c-6.2 0-12-1-16.9-2.9-10.1-4-25.6-15.9-16.8-51 .2-.7.6-1.2 1.2-1.6.6-.3 1.3-.4 2-.2 27.8 8.4 58.5 9.5 82.2 9.4 0 0 0 0 0 0 1.4 0 2.5 1.1 2.5 2.5 0 1.4-1.1 2.5-2.5 2.5-23.3 0-53.4-1-81.1-8.9-5 22.2 0 36.9 14.4 42.6 11.3 4.5 28.1 3 44.9-4 16.8-7 30.7-18.2 37.3-30 .7-1.2 2.2-1.6 3.4-1 1.2.7 1.6 2.2 1 3.4-7.1 12.8-22 24.8-39.8 32.2C2032.7 1185.7 2021.8 1188.1 2012.1 1188.1zM2035.8 1111.2c-4.6 0-8.5-2.6-10.8-5.9-3.3-4.8-4-12.4 2.4-17.7 2.6-2.2 5.5-4.3 8.7-6.6 1.1-.8 2.7-.5 3.5.6s.5 2.7-.6 3.5c-3.1 2.1-5.8 4.2-8.3 6.3-4 3.3-3.6 7.9-1.5 11.1 2.1 3.1 6.3 5.1 10.8 2.6l.3-.2c1.2-.7 2.7-.3 3.4.9.7 1.2.3 2.7-.9 3.4l-.3.2C2040.1 1110.6 2037.9 1111.2 2035.8 1111.2z" fill="#000000" class="color000 svgShape"/><path fill="#5459fd" d="M2140.2,1050.9l-19.9-11.5c-5-2.9-6.7-9.3-3.8-14.3v0c2.9-5,9.3-6.7,14.3-3.8l19.9,11.5       c5,2.9,6.7,9.3,3.8,14.3v0C2151.6,1052.1,2145.2,1053.8,2140.2,1050.9z" class="color5459fd svgShape"/><path d="M2145.4,1054.8c-2.2,0-4.5-0.6-6.5-1.7l-19.9-11.5c-6.2-3.6-8.3-11.5-4.8-17.8c3.6-6.2,11.6-8.3,17.8-4.8l19.9,11.5       c6.2,3.6,8.3,11.6,4.8,17.8c-1.7,3-4.5,5.1-7.9,6C2147.7,1054.7,2146.5,1054.8,2145.4,1054.8z M2125.5,1022.3       c-2.8,0-5.5,1.4-6.9,4c-2.2,3.8-0.9,8.7,2.9,10.9l19.9,11.5l0,0c1.8,1.1,4,1.3,6.1,0.8c2.1-0.6,3.8-1.9,4.9-3.7       c2.2-3.8,0.9-8.7-2.9-10.9l-19.9-11.5C2128.2,1022.7,2126.9,1022.3,2125.5,1022.3z" fill="#000000" class="color000 svgShape"/><path fill="#5459fd" d="M2021.8,1009.8l-22.7,3.7c-5.7,0.9-11.1-3-12-8.7l0,0c-0.9-5.7,3-11.1,8.7-12l22.7-3.7       c5.7-0.9,11.1,3,12,8.7l0,0C2031.4,1003.4,2027.5,1008.8,2021.8,1009.8z" class="color5459fd svgShape"/><path d="M1997.4 1016.1c-6.3 0-11.8-4.5-12.8-10.9-.6-3.4.3-6.9 2.3-9.7 2-2.8 5-4.7 8.5-5.2l22.7-3.7c3.4-.6 6.9.3 9.7 2.3 2.8 2 4.7 5 5.2 8.5s-.3 6.9-2.3 9.7c-2 2.8-5 4.7-8.5 5.2l-22.7 3.7C1998.8 1016 1998.1 1016.1 1997.4 1016.1zM2020.2 991.4c-.4 0-.9 0-1.3.1l-22.7 3.7c-2.1.3-3.9 1.5-5.2 3.2-1.3 1.7-1.8 3.9-1.4 6 .7 4.4 4.8 7.3 9.2 6.6l22.7-3.7 0 0c2.1-.3 3.9-1.5 5.2-3.2 1.3-1.7 1.8-3.9 1.4-6-.3-2.1-1.5-3.9-3.2-5.2C2023.4 991.9 2021.8 991.4 2020.2 991.4zM2027 1292.9c-16 0-32-2.9-47-10.3-33.7-16.5-55.2-40.7-63.9-72-7.8-28.2-5.2-62.1 7.7-100.6 12.4-37 31.8-70.6 45.9-92.3.8-1.2 2.3-1.5 3.5-.7 1.2.8 1.5 2.3.7 3.5-22.2 34.1-71.8 120.8-52.9 188.9 8.3 29.9 28.9 53.1 61.2 68.9 62.1 30.3 142.8-18 166-33.5 1.1-.8 2.7-.5 3.5.7s.5 2.7-.7 3.5C2132.6 1260.9 2079.7 1292.9 2027 1292.9z" fill="#000000" class="color000 svgShape"/><g><linearGradient id="a" x1="1932.333" x2="2024.333" y1="1048.333" y2="1048.333" gradientUnits="userSpaceOnUse"><stop offset="0" stop-color="#ffffff" class="stopColorfff svgShape"/><stop offset="1" stop-color="#ffffff" class="stopColorfff svgShape"/></linearGradient><ellipse cx="1978.3" cy="1048.3" fill="url(#a)" opacity=".5" rx="46" ry="36.7"/><linearGradient id="b" x1="2060.659" x2="2150.675" y1="1077.667" y2="1077.667" gradientUnits="userSpaceOnUse"><stop offset="0" stop-color="#ffffff" class="stopColorfff svgShape"/><stop offset="1" stop-color="#ffffff" class="stopColorfff svgShape"/></linearGradient><path fill="url(#b)" d="M2118.3,1043.2     c-23.9-8.7-48.8-0.4-55.8,18.6c-7,19,6.7,41.5,30.6,50.3c23.9,8.7,48.8,0.4,55.8-18.6C2155.8,1074.5,2142.1,1052,2118.3,1043.2z" opacity=".5"/><path d="M1978.3 1087.5c-26.7 0-48.5-17.6-48.5-39.2s21.8-39.2 48.5-39.2c26.7 0 48.5 17.6 48.5 39.2S2005.1 1087.5 1978.3 1087.5zM1978.3 1014.2c-24 0-43.5 15.3-43.5 34.2 0 18.8 19.5 34.2 43.5 34.2s43.5-15.3 43.5-34.2C2021.8 1029.5 2002.3 1014.2 1978.3 1014.2zM2112.2 1118.1c-6.6 0-13.4-1.2-20-3.6-12.1-4.4-22.1-12.3-28.1-22.3-6.2-10.2-7.6-21.2-3.9-31.1s11.9-17.5 23.1-21.2c11.1-3.7 23.8-3.3 35.9 1.1 25.1 9.2 39.5 33.2 32.1 53.5-3.6 9.9-11.9 17.5-23.1 21.2C2123.1 1117.2 2117.7 1118.1 2112.2 1118.1zM2099.1 1042.3c-4.9 0-9.8.7-14.3 2.2-9.8 3.3-16.9 9.7-20 18.2-3.1 8.5-1.9 18 3.5 26.8 5.5 9 14.6 16.2 25.6 20.2 11 4 22.6 4.4 32.6 1.1 9.8-3.3 16.9-9.7 20-18.2 6.5-17.7-6.6-38.8-29.1-47C2111.4 1043.4 2105.1 1042.3 2099.1 1042.3z" fill="#000000" class="color000 svgShape"/><path d="M2061,1068.6c-0.8,0-1.5-0.4-2-1c-10.6-14.8-35.3-8-35.5-7.9c-1.3,0.4-2.7-0.4-3.1-1.7s0.4-2.7,1.7-3.1     c1.1-0.3,28.3-7.8,40.9,9.8c0.8,1.1,0.5,2.7-0.6,3.5C2062,1068.5,2061.5,1068.6,2061,1068.6z" fill="#000000" class="color000 svgShape"/></g></g><g><path fill="#ffffff" d="M2653.7,2422.2c0,0,101.3,15.1,149.8-8.4c48.4-23.6,59.6-87.6,78.7-120.9c19.1-33.3,64.4-29.8,48.9,31.1   c-15.6,60.9-41.3,123.1-123.6,147.6s-117.8,0-153.8,37.3C2617.7,2546.2,2579.5,2425.3,2653.7,2422.2z" class="colorfff svgShape"/><path fill="#eab8ff" d="M2807.5,2471.6c82.2-24.4,108-86.7,123.6-147.6c-34.8,52.6-40,88.9-100.9,116.9   c-82.1,37.7-128.5,15.4-144.6,1.7c-7.5-6.3-13.6-14.4-22-19.1c-6.2-0.7-9.8-1.3-9.8-1.3c-1.2,0.1-2.4,0.1-3.6,0.3   c-0.4,0.3-0.7,0.6-1.1,0.9c-2,2.2-2.4,5.3-2.6,8.2c-1.4,16.2-1,32.6,1.1,48.8c1.2,9.2,3.2,18.9,7.9,26.7   C2690.9,2472.3,2726.6,2495.6,2807.5,2471.6z" class="coloreab8ff svgShape"/><path d="M2639.4 2518.5c-3 0-6-.8-9-2.4-15.8-8.6-25.6-38.8-20.2-62.2 2.8-12.2 12.2-33 43.4-34.3.2 0 .3 0 .5 0 1 .2 101.1 14.7 148.3-8.2 34.2-16.6 49.3-53.8 62.5-86.5 5-12.3 9.7-24 15.1-33.3 9.9-17.3 27.6-26.1 41.1-20.6 14.8 6 19.4 26 12.4 53.6-6.7 26.2-17 59.9-37.2 88.3-21.2 29.8-50 49.7-88.1 61.1-35.5 10.6-62.5 12.1-84.2 13.3-29.2 1.6-48.6 2.7-68.5 23.4C2650.5 2515.9 2645 2518.5 2639.4 2518.5zM2653.6 2424.7c-20.5.9-34.1 11.7-38.5 30.4-4.9 21.1 3.9 49.1 17.7 56.6 6.4 3.5 12.8 1.9 19.1-4.6 21.3-22 42.4-23.2 71.8-24.9 21.5-1.2 48.2-2.7 83.1-13.1 80.5-23.9 106.1-84.2 121.8-145.8 6.4-24.9 2.9-42.8-9.4-47.7-11.2-4.6-26.3 3.4-34.9 18.5-5.2 9-9.8 20.5-14.8 32.7-12.9 31.9-29 71.7-65 89.2C2756.7 2439.3 2660.4 2425.7 2653.6 2424.7zM2385.3 2279.1c-.6 0-1.2-.2-1.6-.6-1-.9-1.1-2.5-.2-3.5 10.5-12 47.6-52 85.9-62.1 10.2-2.7 19.6-4 27.9-5.2 12.2-1.8 21.8-3.1 25.2-7.9 1.6-2.2 1.9-5.3 1.1-9.6-2-10.5-7.1-17.6-14.9-21.3-24.6-11.4-69.3 13.1-69.7 13.3-1.2.7-2.7.2-3.4-1-.7-1.2-.2-2.7 1-3.4 1.9-1.1 47.4-26 74.3-13.5 9.4 4.4 15.4 12.7 17.7 24.9 1.1 5.7.5 10.1-1.9 13.5-4.6 6.5-14.7 8-28.6 10-8.1 1.2-17.4 2.5-27.3 5.1-36.9 9.8-73.2 48.8-83.4 60.6C2386.7 2278.8 2386 2279.1 2385.3 2279.1z" fill="#000000" class="color000 svgShape"/><path fill="#ffffff" d="M2434.8,2477.7c-20.8,42.7-20.7,79.8-6.8,122.5c13.8,42.7,40.7,56.2,52,65c11.3,8.8-6.8,30.5-26,48.3   c-19.2,17.8-22.7,32.2,3,35c25.7,2.8,43.2-15.3,55-35c11.8-19.7,44.3-20.8,36.8-52.8s1.5-39.8,9.7-69.5   c8.2-29.7,28.2-50.3,28.2-50.3l15.7,0.3c0,0-27.7,50.2-20.3,77.3c7.3,27.2,45.7,25.3,43.3,7.3c-2.3-18-1.3-30,14.7-65   s40.7-64.4,38.2-98.4c-2.4-34-25.8-80.2-59.6-106.2s-33.3-38.7-33.8-85.3c20.9-20.4,96-35.3,113.3-35.6c17.3-0.2,38,25.3,51.1,9.3   s-5.3-28.7-30.2-45.8c-24.9-17.1-86.7-14.4-126.2-22.2c-39.5-7.9-33.8-33.3-37.6-65.1c20.9-1.1,32.8-29.8,36.7-46.7   c3.8-16.9,13.3-60.7,13.3-60.7s-22.7,12.3-45.3-4.7c-22.7-17-13.3-54-13.3-54s-28.3,16-48.7,25.3c-20.3,9.3-35.7,21.3-41.3,62   s-33.4,33.2-63.3,77.3c-83,122.7-48.3,173.3-20.7,176.7C2372.6,2286.9,2364,2384.9,2434.8,2477.7z" class="colorfff svgShape"/><path fill="#eab8ff" d="M2542.5 2184.8c.1 3-2.7 25.6-26.1 15-3.6-1.6-16.8-4.4-20.9-3.2-23.4 5.4-30.9 15.1-49.2 30.7-7.1 6-13.8 12.8-22.2 17-40.4 16.5-68.8-4.3-76.6-43.7-17.3 58.1 5.7 84 25.2 86.4 0 0 30 11.7 81-37.3 51-49 67.9-29 81.7-39C2544.2 2204.1 2548.3 2192.5 2542.5 2184.8zM2556.4 2123.8c-.3-3.9-.6-8-1.1-12.2 20.9-1.1 32.8-29.8 36.7-46.7 1-4.4 2.4-10.7 3.9-17.6-3.9 3.4-6.2 9.4-9 14.2-5.9 10.3-17 17.1-28.6 19.6s-23.8 1.2-35.3-1.8c-12.6-3.3-26-9.8-30.6-22.1l0 5.9c-.8-3.3-1.5-6.6-2.3-9.9-6.1 10.5-2.4 24.1 4 34.4C2507.1 2109.1 2531.5 2122.5 2556.4 2123.8zM2586.6 2540.9l1.9 0c-.1-.3-.1-.7-.2-1-1.3-4.7-6-7.5-10.1-10.2-16.2-10.7-27.9-27.7-32.2-46.6l-.4 2.1c-49.6 63.2-36.8 119.8-29.1 154.1 3.5 15.4 9.5 32.8.6 45.9-6.7 9.8-19.6 13.2-28.7 20.9-1.8 1.5-3.5 3.5-3.5 5.8 0 1.9 1.3 3.6 2 5.4 2.5 6.1-.8 13.1-5.6 17.6-9.6 8.9-23.5 10.3-36.9 10.4 2.9 1.6 7.1 2.7 12.5 3.3 25.7 2.8 43.2-15.3 55-35 11.8-19.7 44.3-20.8 36.8-52.8s1.5-39.8 9.7-69.5C2566.6 2561.6 2586.6 2540.9 2586.6 2540.9zM2749.2 2223.2c-3.3 18.7-26.8 8.9-38.1 3.2-77-37.8-181.7 21.1-144.8 120.1 18.9 50.8 92.7 69.8 74.3 163.9-5.4 27.7-27.8 55-33.6 83.7-3.2 16 18.1 33.8 7.8 44.5 6.6-1.6 11.2-6 10.3-12.7-12.5-45.1 57.3-116.4 52.9-163.4-2.2-37-30.3-86.6-66.7-112-6-5.1-11.8-10.6-16.2-17.2-12.3-18.2-9.6-41.5-10.4-62.4 20.9-20.4 96-35.3 113.3-35.6 17.3-.2 38 25.3 51.1 9.3C2755.5 2237 2754.6 2230.2 2749.2 2223.2z" class="coloreab8ff svgShape"/><path d="M2584.8 2273.4c-.1 0-.3 0-.4 0-19.6-3-48.1-17.6-49.3-18.2-1.2-.6-1.7-2.1-1.1-3.4.6-1.2 2.1-1.7 3.4-1.1.3.1 29 14.8 47.8 17.8 1.4.2 2.3 1.5 2.1 2.9C2587.1 2272.5 2586.1 2273.4 2584.8 2273.4zM2594.6 2542.7c-.5 0-.9-.1-1.3-.4-44-28.1-54.2-62.1-55.1-85.7-.9-25.5 8.5-44.1 8.9-44.9.6-1.2 2.1-1.7 3.4-1.1 1.2.6 1.7 2.1 1.1 3.4-.1.3-9.2 18.5-8.3 42.7 1.3 32.4 19 59.8 52.8 81.4 1.2.7 1.5 2.3.8 3.5C2596.2 2542.3 2595.4 2542.7 2594.6 2542.7zM2460.6 2504.1c-.3 0-.7-.1-1-.2-.8-.4-20.3-9.2-27.1-25.1-.5-1.3 0-2.7 1.3-3.3 1.3-.5 2.7 0 3.3 1.3 6 14.1 24.4 22.5 24.6 22.5 1.3.6 1.8 2 1.3 3.3C2462.5 2503.5 2461.6 2504.1 2460.6 2504.1zM2547.6 2039.4c-.1 0-.2 0-.3 0-.5-.1-5-.7-7.4-4.1-.5-.7-1-1.8-1.3-3.1-6.1.9-9.3-2.7-10.2-5.1-.5-1.3.1-2.7 1.4-3.2 1.3-.5 2.7.1 3.2 1.4.3.6 1.8 3.4 7.3 1.4.9-.3 1.8-.1 2.5.5.7.6 1 1.6.8 2.4-.3 1.2-.2 2.2.3 2.9 1 1.4 3.3 2 3.9 2 1.4.2 2.3 1.4 2.2 2.8C2549.9 2038.5 2548.9 2039.4 2547.6 2039.4zM2575.6 2035.7c-1.3 0-2.3-.9-2.5-2.2 0-.1-.5-3.8-4.2-5.7-2.3-1.2-6-.5-7.2-.1-1.3.4-2.7-.4-3.1-1.7-.4-1.3.4-2.7 1.7-3.1.7-.2 6.5-1.9 11 .5 6.1 3.2 6.8 9.3 6.9 9.6.2 1.4-.8 2.6-2.2 2.8C2575.8 2035.7 2575.7 2035.7 2575.6 2035.7zM2525.8 2012.6c-1.3 0-2.3-.9-2.5-2.2 0-.1-.5-3.8-4.2-5.7-2.3-1.2-6-.5-7.2-.1-1.3.4-2.7-.4-3.1-1.7-.4-1.3.4-2.7 1.7-3.1.7-.2 6.5-1.9 11 .5 6.1 3.2 6.8 9.3 6.9 9.6.2 1.4-.8 2.6-2.2 2.8C2526 2012.6 2525.9 2012.6 2525.8 2012.6zM2381.8 2290.6c-6.2 0-9.7-1.3-10.1-1.4-1.3-.5-1.9-1.9-1.4-3.2.5-1.3 1.9-1.9 3.2-1.4.4.2 29.5 10.1 78.4-36.8 35.9-34.5 55.6-35.5 68.7-36.1 5.6-.3 9.6-.5 13.2-3.1 7.3-5.3 10.7-14.1 7.9-20.3-4.1-9-19.6-11.3-41.5-6.2-23.2 5.4-41.7 14.9-56.5 22.6-18.6 9.6-33.3 17.2-47 11.3-1.3-.6-1.8-2-1.3-3.3.6-1.3 2-1.8 3.3-1.3 11.5 5 24.6-1.8 42.7-11.1 15.1-7.8 33.9-17.5 57.7-23 35.2-8.1 44.7 3.6 47.2 9 3.9 8.5-.1 19.6-9.5 26.4-4.9 3.5-10 3.8-15.9 4.1-12.3.6-30.9 1.5-65.5 34.7C2420.3 2285 2394.9 2290.6 2381.8 2290.6z" fill="#000000" class="color000 svgShape"/><path d="M2462.2,2751.4c-1.8,0-3.7-0.1-5.5-0.3c-11.3-1.2-18-4.8-20-10.7c-2.4-7.2,2.9-16.8,15.5-28.6    c18.9-17.5,29-31.6,28.7-39.6c-0.1-2.1-0.9-3.6-2.5-4.9c-1.5-1.2-3.4-2.5-5.5-4c-13.2-9.2-35.2-24.7-47.4-62.2    c-14.9-45.9-13-82.7,6.3-123c-36.2-48-51.1-97.1-57.2-130.1c-5.6-30.1-5.1-52-4.7-59c-10.7-2.2-20.1-10.4-25.6-22.3    c-9-19.8-14.9-66.6,46.8-157.8c13.3-19.6,26.4-29.4,36.9-37.2c13.4-10,23-17.2,26.1-39.1c5.5-39.6,19.9-53.4,42.8-63.9    c20-9.2,48.2-25.1,48.5-25.2c0.9-0.5,1.9-0.4,2.7,0.2c0.8,0.6,1.2,1.6,0.9,2.6c-0.1,0.4-8.6,35.6,12.4,51.4    c21.1,15.8,41.8,4.9,42.6,4.5c0.9-0.5,1.9-0.4,2.7,0.2c0.8,0.6,1.1,1.6,0.9,2.5c-0.1,0.4-9.5,44-13.3,60.7    c-1.1,4.7-10.9,44.4-36.3,48.3c0.5,4.3,0.8,8.5,1.1,12.6c1.8,24.2,3,41.6,34.2,47.9c13.8,2.7,30.8,4.2,47.2,5.7    c31.1,2.7,63.2,5.5,79.9,17c18.9,13,33.8,23.2,35.5,35.1c0.7,4.8-0.9,9.6-4.8,14.3c-9.3,11.3-21.9,4.7-33.1-1.2    c-6.7-3.6-13.7-7.2-19.8-7.2c-0.1,0-0.1,0-0.2,0c-17.8,0.2-90,15-110.9,34.1l0,1.2c0.4,44.3,0.5,56.3,32.8,81.1    c36.7,28.2,58.2,75.7,60.5,108c1.8,25.1-10.6,47.5-23.6,71.2c-5.1,9.2-10.3,18.7-14.8,28.5c-16,35-16.7,46.3-14.5,63.6    c1,7.7-4.2,13.8-13.3,15.6c-13.5,2.7-30.3-4.8-34.9-22c-6.4-23.8,12.4-63.4,18.6-75.6l-10.5-0.2c-3.6,4-19.8,23-26.8,48.5    c-2.1,7.6-4.2,13.7-6.1,19.2c-5.6,16.1-9,25.9-3.5,49.1c5.2,22.2-7.6,30.8-19.9,39.1c-6.5,4.4-13.2,8.9-17.2,15.5    C2499.5,2739.1,2482.1,2751.3,2462.2,2751.4z M2543.1,1950.4c-8.9,4.9-28.9,15.8-44.2,22.8c-18.4,8.5-34.2,18.8-39.9,60.1    c-3.3,23.9-14.2,32.1-28,42.4c-10.7,8-22.9,17.1-35.7,36c-24.7,36.6-40.8,69.4-47.7,97.5c-7,28.2-3.1,45.7,1.3,55.4    c5.1,11.2,14.1,18.6,24,19.8c1.3,0.2,2.3,1.4,2.2,2.7c0,0.2-2.1,24.7,4.5,60.1c6.1,32.6,20.9,81.5,57.1,129    c0.6,0.8,0.7,1.8,0.3,2.6c-19.3,39.5-21.3,75.6-6.7,120.6c11.6,35.9,32.8,50.8,45.5,59.7c2.2,1.5,4.1,2.8,5.7,4.1    c2.8,2.2,4.3,5.1,4.5,8.6c0.4,9.8-9.8,24.4-30.3,43.5c-10.8,10.1-15.9,18.4-14.2,23.4c1.2,3.8,6.7,6.3,15.8,7.3    c20.1,2.2,37.8-9.2,52.6-33.8c4.5-7.5,11.7-12.4,18.7-17.1c11.9-8.1,22.3-15,17.8-33.9c-5.8-24.6-2-35.5,3.7-51.9    c1.9-5.4,4-11.5,6-18.9c8.2-29.9,27.9-50.5,28.8-51.4c0.5-0.5,1.1-0.8,1.8-0.8c0,0,0,0,0.1,0l15.7,0.3c0.9,0,1.7,0.5,2.1,1.3    s0.4,1.7,0,2.5c-0.3,0.5-27.1,49.6-20.1,75.5c4.3,15.8,19.6,20.3,29.1,18.4c2.4-0.5,10.3-2.6,9.3-10.1    c-2.3-17.9-1.6-30.3,14.9-66.4c4.6-10,9.9-19.6,15-28.8c12.7-23,24.7-44.8,23-68.4c-2.2-30.4-23.5-77.4-58.6-104.4    c-34.2-26.3-34.3-39.9-34.7-85l0-2.3c0-0.7,0.3-1.3,0.8-1.8c22.1-21.6,99.2-36.1,115-36.3c0.1,0,0.2,0,0.3,0    c7.3,0,14.8,4,22.1,7.8c12.5,6.6,20.6,10.1,26.9,2.5c3-3.6,4.2-7,3.7-10.4c-1.4-9.7-16.2-19.9-33.3-31.7    c-15.6-10.7-47.1-13.5-77.5-16.1c-16.6-1.4-33.7-2.9-47.8-5.7c-34.9-7-36.5-28-38.2-52.4c-0.3-4.8-0.7-9.7-1.3-14.9    c-0.1-0.7,0.1-1.4,0.6-1.9c0.4-0.5,1.1-0.8,1.8-0.9c19.3-1,30.7-28.6,34.4-44.7c3.1-13.4,9.7-44.1,12.3-55.9    c-8.1,2.9-25.7,6.4-43.4-6.9C2539.8,1987.6,2541.4,1961.6,2543.1,1950.4z" fill="#000000" class="color000 svgShape"/></g><g><path fill="#ffffff" d="M2581.2,1148.1l3.8,9.2c-38.8-82.5-147.6-1.1-49.8,61.8c31,19.9,79.7,18.8,110.5-22.4    C2693.3,1133,2599,1100.3,2581.2,1148.1z" opacity=".2" class="colorfff svgShape"/><path fill="#ffffff" d="M2578.8,1234.1c-15.9,0-31.8-4.5-45-13c-44.6-28.7-42.4-57.7-39.4-68.8c5-18.3,22.2-31.6,41.8-32.5    c17.2-0.7,32.7,8,43.9,24.1c5.9-12.4,17.5-20,32.3-21.1c18.3-1.3,36.6,7.9,44.5,22.4c8.2,15,4.9,33.8-9.3,52.9    c-18.6,24.8-41.2,32.8-56.9,35.1C2586.9,1233.9,2582.9,1234.1,2578.8,1234.1z M2538.2,1124.8c-0.6,0-1.1,0-1.6,0    c-17.5,0.7-32.8,12.6-37.2,28.8c-5.8,21.3,7.8,44.3,37.3,63.3c29.7,19.1,77.4,18,107.2-21.8c13-17.4,16.2-34.2,8.9-47.5    c-7-12.8-23.4-21-39.8-19.8c-14,1-24.7,8.7-29.3,21l-0.2-0.1c2.9,4.8,5.4,10.2,7.5,16l-4.7,1.7    C2572.7,1129.6,2549.2,1124.8,2538.2,1124.8z" class="colorfff svgShape"/><path fill="#ffffff" d="M1573.9,894.7c-29.8,9.9-18.6,60.7-19.9,84.1c-23.7,4.5-83.3-7.6-82.3,15.9c1.3,29.5-0.4,53.3,0.4,77.8    c0.5,14.3,11.8,25.9,26,26.9c46.9,3.4,91.8-1,97.5-9.8c6.8-10.6,6-32.2,6.8-76.7C1602.6,1008.5,1611.4,882.2,1573.9,894.7z" opacity=".2" class="colorfff svgShape"/><path fill="#ffffff" d="M1494.4 1025.6c-7.1 0-14.1-.4-21.3-1.6-1.4-.2-2.3-1.5-2-2.9.2-1.4 1.5-2.3 2.9-2 14.7 2.5 28.9 1.5 45.3.4 2.3-.2 4.6-.3 7-.5 1.4-.1 2.6 1 2.7 2.3.1 1.4-1 2.6-2.3 2.7-2.4.2-4.7.3-7 .5C1510.7 1025 1502.4 1025.6 1494.4 1025.6zM1495.4 1059.4c-8.2 0-15-.7-21.3-2.2-1.3-.3-2.2-1.7-1.9-3 .3-1.3 1.7-2.2 3-1.9 8.9 2 21.2 3.4 50.5-.3 1.4-.2 2.6.8 2.8 2.2.2 1.4-.8 2.6-2.2 2.8C1513.9 1058.6 1503.9 1059.4 1495.4 1059.4z" class="colorfff svgShape"/><path fill="#ffffff" d="M1529.8,1103.1c-10.5,0-21.3-0.4-31.8-1.1c-15.6-1.1-27.8-13.7-28.4-29.3c-0.4-11.2-0.2-22.1-0.1-33.7     c0.2-13.8,0.3-28-0.3-44.1c-0.2-3.9,1.1-7.2,3.6-9.8c8.5-8.7,30.2-8.2,51.1-7.7c10.5,0.2,20.5,0.4,27.6-0.6     c0.1-4.7-0.2-10.5-0.5-16.6c-1.3-25.1-3-59.4,22-67.8l0,0c5.6-1.9,10.6-1.1,15,2.2c19.2,14.6,18.9,79.3,17,116.5     c-0.1,1.1-0.1,1.7-0.1,2c-0.1,6.2-0.2,11.9-0.3,17.2c-0.5,34-0.7,51-7,60.8C1592.5,1099.2,1562.9,1103.1,1529.8,1103.1z      M1510.1,982.1c-14.6,0-28.4,1-33.7,6.4c-1.6,1.6-2.3,3.6-2.2,6.1c0.7,16.2,0.5,30.5,0.3,44.3c-0.1,11.5-0.3,22.4,0.1,33.5     c0.4,13,10.6,23.5,23.7,24.5c49,3.5,90.7-1.6,95.2-8.6c5.5-8.6,5.7-26.2,6.2-58.1c0.1-5.3,0.2-11,0.3-17.2c0-0.3,0-1,0.1-2.2     c3.2-61.7-2.3-102.6-15.1-112.3c-3-2.3-6.4-2.7-10.4-1.4l0,0c-21.4,7.1-19.8,38-18.6,62.8c0.4,7.1,0.7,13.8,0.4,19.1     c-0.1,1.1-0.9,2.1-2,2.3c-7.7,1.5-18.8,1.2-30.6,1C1519.4,982.2,1514.7,982.1,1510.1,982.1z" class="colorfff svgShape"/><path fill="#ffffff" d="M1313.3,1238.2c4.7,18.4,17.8,52.3,51.8,67c2.5,1.1,2.3,4.8-0.3,5.6c-28.1,8.7-51.4,26.9-61.8,52.2      c-1.1,2.7-5,2.5-5.7-0.4c-8.7-34.5-39.8-53.8-53.7-60.8c-2.3-1.2-2.1-4.6,0.3-5.5c15.3-5.7,50.8-22.5,63.7-58.3      C1308.5,1235.1,1312.5,1235.3,1313.3,1238.2z" opacity=".2" class="colorfff svgShape"/><path fill="#ffffff" d="M1300.2,1368.1c-0.2,0-0.3,0-0.5,0c-2.7-0.2-5-2.1-5.6-4.8c-8.4-33.5-39.2-52.2-52.1-58.7      c-2.2-1.1-3.5-3.4-3.4-5.9c0.1-2.5,1.7-4.6,4.1-5.5c14.4-5.4,49.3-21.7,61.7-56.4c0.9-2.6,3.4-4.3,6.2-4.1      c2.8,0.1,5.1,2,5.8,4.7v0c4.7,18.2,17.4,50.8,50,64.8c2.4,1,3.9,3.4,3.7,6c-0.1,2.7-1.9,4.9-4.4,5.7      c-28.5,8.8-50.3,27.2-59.7,50.3C1305,1366.6,1302.8,1368.1,1300.2,1368.1z M1245.5,1299.1c13.8,7.1,45.6,26.8,54.8,62.1      c10.3-24.5,33.2-43.8,63-53.2c-34.3-15.1-47.8-48.9-52.9-68.2C1296.9,1276.1,1260.9,1293.2,1245.5,1299.1z" class="colorfff svgShape"/><path fill="#ffffff" d="M1226.9,1354.3c2.7,10.5,10.1,29.8,29.5,38.1c1.4,0.6,1.3,2.7-0.2,3.2c-16,5-29.2,15.3-35.1,29.7      c-0.6,1.6-2.9,1.4-3.3-0.2c-4.9-19.6-22.6-30.6-30.6-34.6c-1.3-0.7-1.2-2.6,0.2-3.1c8.7-3.3,28.9-12.8,36.2-33.2      C1224.2,1352.6,1226.5,1352.7,1226.9,1354.3z" opacity=".2" class="colorfff svgShape"/><path fill="#ffffff" d="M1219.5,1429.6c-0.1,0-0.2,0-0.4,0c-2.1-0.2-3.9-1.7-4.5-3.8c-4.6-18.5-21.7-28.9-28.9-32.5      c-1.8-0.9-2.8-2.7-2.7-4.7c0.1-2,1.4-3.7,3.2-4.4c8-3,27.4-12.1,34.3-31.2c0.7-2.1,2.7-3.4,4.9-3.3c2.2,0.1,4,1.6,4.6,3.7      c2.6,10.1,9.6,28.2,27.6,35.9c1.9,0.8,3.1,2.7,3,4.8c-0.1,2.1-1.5,3.9-3.5,4.5c-15.8,4.9-27.9,15-33.1,27.8      C1223.3,1428.4,1221.5,1429.6,1219.5,1429.6z M1191.7,1389.1c8.3,4.7,22.4,14.8,28.1,31.2c6.1-11.8,17.4-21.3,31.9-26.6      c-15.8-8.3-23.2-23.6-26.7-34.4C1217.1,1376.2,1200.9,1385.2,1191.7,1389.1z" class="colorfff svgShape"/><path fill="#ffffff" d="M2611.5,1368c3.1,8.8,11,24.9,28.4,30.7c1.3,0.4,1.3,2.3,0.1,2.8c-13.4,5.5-24.1,15.4-28.1,28.3     c-0.4,1.4-2.4,1.4-2.8,0c-5.8-16.6-21.9-24.7-29.1-27.5c-1.2-0.5-1.2-2.2-0.1-2.7c7.3-3.5,24-13.3,28.7-31.4     C2609,1366.6,2611,1366.6,2611.5,1368z" opacity=".2" class="colorfff svgShape"/><path fill="#ffffff" d="M2610.4,1433.6c-1.8,0-3.5-1.2-4.1-2.9c-5.4-15.6-21-23.3-27.4-25.9c-1.6-0.6-2.6-2.1-2.7-3.8     c-0.1-1.7,0.9-3.3,2.4-4c6.7-3.2,22.7-12.5,27.2-29.6c0.5-1.8,2.1-3.1,4-3.2c1.9-0.1,3.6,1.1,4.2,2.9l0,0     c3,8.5,10.5,23.6,26.6,28.9c1.7,0.6,2.9,2.1,2.9,3.9c0.1,1.8-1,3.4-2.7,4.1c-13.3,5.5-22.9,15.1-26.4,26.6     C2614,1432.3,2612.4,1433.6,2610.4,1433.6C2610.5,1433.6,2610.5,1433.6,2610.4,1433.6z M2583.7,1400.7c7.5,3.4,20.5,11,26.7,24.8     c4.4-10.7,13.4-19.7,25.5-25.4c-14.3-6-21.9-18.6-25.7-27.7C2604.7,1387.6,2591.4,1396.6,2583.7,1400.7z" class="colorfff svgShape"/><g><path fill="#ffffff" d="M2865.5,974.8c3.1,8.8,11,24.9,28.4,30.7c1.3,0.4,1.3,2.3,0.1,2.8c-13.4,5.5-24.1,15.4-28.1,28.3     c-0.4,1.4-2.4,1.4-2.8,0c-5.8-16.6-21.9-24.7-29.1-27.5c-1.2-0.5-1.2-2.2-0.1-2.7c7.3-3.5,24-13.3,28.7-31.4     C2863,973.5,2865,973.4,2865.5,974.8z" opacity=".2" class="colorfff svgShape"/><path fill="#ffffff" d="M2864.4,1040.4c-1.8,0-3.5-1.2-4.1-2.9c-5.4-15.6-21-23.3-27.4-25.9c-1.6-0.6-2.6-2.1-2.7-3.8     c-0.1-1.7,0.9-3.3,2.4-4c6.7-3.2,22.7-12.5,27.2-29.6c0.5-1.8,2.1-3.1,4-3.2c1.9-0.1,3.6,1.1,4.2,2.9l0,0     c3,8.5,10.5,23.6,26.6,28.9c1.7,0.6,2.9,2.1,2.9,3.9c0.1,1.8-1,3.4-2.7,4.1c-13.3,5.5-22.9,15.1-26.4,26.6     C2868,1039.2,2866.4,1040.4,2864.4,1040.4C2864.5,1040.4,2864.5,1040.4,2864.4,1040.4z M2837.7,1007.6c7.5,3.4,20.5,11,26.7,24.8     c4.4-10.7,13.4-19.7,25.5-25.4c-14.3-6-21.9-18.6-25.7-27.7C2858.7,994.4,2845.4,1003.4,2837.7,1007.6z" class="colorfff svgShape"/></g><g><path fill="#ffffff" d="M2462.3,927c0,0,64.7,72.3,80,76c22.2,5.3,101.4-91,128.2-123.3c27.6-33.1,39.8-38,13.1-59.3    c-13.4-10.7-24.7,10.9-74.7,66.7c-44.4,49.5-55.3,63.3-66.7,58.7c-11.3-4.7-40.7-37.6-56.7-53.6    C2473.7,880.1,2443,910.3,2462.3,927z" opacity=".2" class="colorfff svgShape"/><path fill="#ffffff" d="M2544.1,1005.7c-0.8,0-1.6-0.1-2.3-0.3c-15.5-3.7-74-68.6-81.2-76.6c-5.8-5-8.1-11.9-6.5-19.3    c2.1-9.6,10.9-19.3,20-21.9c5.3-1.6,10-0.6,13.3,2.8c3.8,3.8,8.4,8.6,13.3,13.7c14.5,15.2,34.4,35.9,42.5,39.3    c8.8,3.6,19.1-8,53.5-46.4c3.2-3.6,6.7-7.5,10.4-11.6c12.1-13.5,22-25.1,30-34.5c13-15.1,21.5-25.2,28.4-30.6    c5.1-4.1,12-8,19.7-1.8c10.6,8.5,15.2,14.5,15.7,20.7c0.8,8.5-6,16.2-17.3,29.1c-3.3,3.8-7.1,8.1-11.2,13l-3,3.6    C2619.5,945,2566,1005.7,2544.1,1005.7z M2478.8,891.9c-1.2,0-2.3,0.2-3.3,0.5c-7.4,2.2-14.8,10.4-16.5,18.2    c-0.8,3.9-0.7,9.6,5,14.5c0.1,0.1,0.2,0.1,0.2,0.2c25.8,28.8,68.1,72.7,78.7,75.2c4.7,1.1,18.3-3.1,57.2-44    c24.9-26.1,51.3-57.8,65.4-74.9l3-3.6c4.1-5,7.9-9.3,11.3-13.1c10.4-11.9,16.6-19,16.1-25.4c-0.4-4.7-4.6-9.8-13.9-17.3    c-7.9-6.3-15.1,1.4-41.1,31.8c-8,9.4-18,21-30.1,34.6c-3.7,4.1-7.1,8-10.4,11.6c-37.1,41.5-47.1,52.7-59.1,47.7    c-9.1-3.8-27.8-23.2-44.2-40.4c-4.9-5.1-9.5-9.9-13.3-13.7C2482.4,892.4,2480.5,891.9,2478.8,891.9z" class="colorfff svgShape"/></g></g><g><path fill="#ffffff" d="M2749.7,1528.7c0,0-52.4,135.9-54.4,144.8c-2,8.9-8.6,10.8,10.7,20.6s64.8,34.3,71.2,36.3     s23.7-31.2,34.3-44.3s57.6-87.3,63.6-96.2C2881.2,1581.1,2752.2,1510,2749.7,1528.7z" class="colorfff svgShape"/><path fill="#fab8ff" d="M2837.5,1563.7c-17.8,28.8-58.5,124.4-82.2,156c6.3,3.2,20.2,10.1,22,10.7c6.3,2,23.7-31.2,34.3-44.3     c10.7-13.1,57.6-87.3,63.6-96.2C2876.5,1587.9,2847.2,1570.5,2837.5,1563.7z" class="colorfab8ff svgShape"/><path fill="#141618" d="M2777.8,1733c-0.5,0-0.9-0.1-1.3-0.2c-4.3-1.3-22.5-10.8-47.9-24.2c-9.1-4.8-17.6-9.3-23.6-12.3     c-14.9-7.6-16.4-11.5-13.4-19.1c0.5-1.3,1-2.7,1.4-4.3c2-8.8,51.2-136.6,54.4-144.9c0.3-1.5,1.3-3.8,4.8-4.6     c12.3-3,50,15.7,65.7,23.9c24.2,12.7,53,30.1,58.8,38.5c1.9,2.7,1.4,4.5,0.7,5.6c-1.6,2.3-6.1,9.4-11.8,18.3     c-16.4,25.6-43.9,68.3-51.9,78.1c-3.6,4.5-8.3,11.6-12.7,18.5C2789.1,1724.3,2782.9,1733,2777.8,1733z M2778,1728L2778,1728     L2778,1728z M2755.2,1528.1c-0.2,0-0.5,0-0.7,0c-1,0.1-2.3,0.3-2.4,0.9c0,0.2-0.1,0.4-0.1,0.6c-18.1,47-52.7,137.6-54.3,144.4     c-0.4,2-1.1,3.6-1.6,5c-1.7,4.4-2.4,6,11.1,12.9c6,3.1,14.6,7.6,23.7,12.3c19,9.9,42.5,22.3,47,23.8c3.3-0.6,12.9-15.5,18.7-24.5     c4.8-7.3,9.2-14.3,13.1-19c7.8-9.5,35.2-52.1,51.5-77.6c5.6-8.7,9.7-15.1,11.6-17.9c-1.7-3.7-18.7-16.6-51.6-34.3     C2790.8,1538.4,2765.2,1528.1,2755.2,1528.1z M2749.7,1528.7L2749.7,1528.7L2749.7,1528.7z" class="color141618 svgShape"/><path fill="#ffa6e1" d="M2888.5,1579.8c0.6-1.8-2-3.2-7.8-5.9c0.1,2.8-123.7-60.7-120.9-61.7c-3.1-2-7.6-4.9-9.7-1.4     c-2.7,4.4-12,18.7-9.4,20.9c2.7,2.2,101.1,51.3,105.4,53.3c4.3,2,24.9,13,29.8,14.5C2880.9,1600.9,2887.6,1582.7,2888.5,1579.8z" class="colorffa6e1 svgShape"/><path fill="#ff81cd" d="M2870.4,1569.2c-2.9,6-8.5,17.4-11.3,22.3c6.8,3.5,14.2,7.1,16.9,7.9c4.9,1.5,11.6-16.7,12.6-19.7     C2889.4,1577.1,2883.4,1575.3,2870.4,1569.2z" class="colorff81cd svgShape"/><path fill="#141618" d="M2876.5,1602c-0.4,0-0.8-0.1-1.2-0.2c-3.3-1-12.1-5.4-22.4-10.7c-3.5-1.8-6.4-3.3-7.7-3.9     c-0.9-0.4-102.8-51-106-53.6c-3.4-2.8-0.3-9.4,7.7-22.2c0.5-0.7,0.8-1.4,1.2-1.9c0.9-1.4,2.1-2.4,3.6-2.7     c3.1-0.7,6.4,1.2,9.6,3.2c18,10.3,112.4,57.8,120.6,61.6c5.9,2.7,10.5,4.8,9.1,8.9v0C2888.7,1587.2,2883,1602,2876.5,1602z      M2742.8,1530c7.9,4.6,98.6,50,104.4,52.7c1.4,0.6,4.3,2.1,7.9,4c7.2,3.7,18.1,9.3,21.4,10.3c2-0.6,6.5-9.1,9.4-17.5     c-1.1-0.9-4.5-2.5-6.3-3.3c-8.3-3.8-103.2-51.6-121.1-61.8c0,0-0.1,0-0.1-0.1c-1.3-0.9-4.5-2.9-5.8-2.6c-0.1,0-0.2,0.1-0.5,0.4     c-0.3,0.5-0.7,1.2-1.2,1.9C2745.8,1522.6,2743,1528,2742.8,1530z M2888.5,1579.8L2888.5,1579.8L2888.5,1579.8z" class="color141618 svgShape"/><path fill="#ff81cd" d="M2865.9,1567c6.2,3.1,11.2,5.3,14.9,7c-0.1-5.2-0.3-11.4-0.8-15.3c-0.8-6.1-0.5-5.4-8.1-10    c-7.6-4.6-83.4-44.3-90.5-46.2s-18.1,8.9-21.1,9.7c-0.1,0-0.2,0.1-0.3,0.1c0.8,0.5,1.6,1,2.1,1.3    C2793.9,1530.4,2849.9,1559,2865.9,1567z" class="colorff81cd svgShape"/><path fill="#141618" d="M2880.8,1576.4c-0.4,0-0.7-0.1-1-0.2l-2.3-1c-3.4-1.5-7.6-3.4-12.7-6l0,0c-17-8.5-72.7-36.9-104-53.5    c-0.6-0.3-1.3-0.8-2.1-1.3l-0.2-0.1c-0.8-0.5-1.2-1.4-1.1-2.4c0.1-0.9,0.7-1.7,1.6-2.1c0.2-0.1,0.4-0.2,0.6-0.2    c0.6-0.2,2.4-1.5,3.9-2.5c5.3-3.7,12.5-8.8,18.5-7.2c7.5,2.1,84.1,42.2,91.2,46.5l1.7,1c6.1,3.6,6.8,4.2,7.5,10.3l0.1,0.5    c0.5,4.1,0.7,10.5,0.8,15.6c0,0.9-0.4,1.7-1.1,2.1C2881.7,1576.3,2881.3,1576.4,2880.8,1576.4z M2764.9,1512.2    c31.5,16.7,85.4,44.2,102.1,52.5l0,0c4.3,2.2,8.1,3.9,11.2,5.3c-0.1-4-0.3-8.2-0.7-11.1l-0.1-0.5c-0.3-2.2-0.4-3.2-0.8-3.7    c-0.5-0.7-1.9-1.5-4.3-3l-1.7-1c-8.9-5.4-83.5-44.2-89.9-45.9c-3.8-1-10.4,3.6-14.3,6.4    C2765.8,1511.6,2765.4,1511.9,2764.9,1512.2z" class="color141618 svgShape"/><path fill="#00dcb0" d="M2704.2,1640.8c0,0-4-2.5-2.7-5.7c1.3-3.1,24.5-70.1,29.1-74.1c4.6-4,7.7-2,21.2,5.4     c13.4,7.4,103.9,52.7,107.4,54.8c3.4,2.1-4.8,14-13.2,26s-29.7,44.4-32.1,47s-14.3-6.3-25.2-11.2     C2777.9,1678.1,2704.2,1640.8,2704.2,1640.8z" class="color00dcb0 svgShape"/><path fill="#009a89" d="M2859.2,1621.2c-0.8-0.5-6.1-3.2-14.1-7.3c-5.4,10-18.8,33.8-32.2,52.3c-7.1,9.8-11.8,16.7-14.8,21.5     c7.6,4.2,14.1,8.2,15.8,6.4c2.4-2.6,23.6-35,32.1-47C2854.4,1635.2,2862.7,1623.3,2859.2,1621.2z" class="color009a89 svgShape"/><path fill="#141618" d="M2812.7,1697.1c-3.1,0-7.5-2.5-13.7-5.9c-3.5-2-7.6-4.2-11.3-5.9c-10.8-4.9-81.6-40.7-84.6-42.2     c-0.1,0-0.1-0.1-0.2-0.1c-2.2-1.4-5.4-4.7-3.6-8.8c0.2-0.6,1.6-4.2,3.2-8.9c16.3-45.6,23.5-63.5,26.6-66.2c5.8-5,10-2.7,22.5,4.3     l1.5,0.9c7.6,4.2,40.5,20.8,67,34.2c24.1,12.2,38.9,19.7,40.5,20.6c1,0.6,1.6,1.6,1.9,2.7c0.9,4.6-4.8,13.2-14.4,26.8     c-3.7,5.2-9.9,14.4-15.8,23.3c-9.3,13.9-15.1,22.4-16.5,23.9C2814.9,1696.7,2813.9,1697.1,2812.7,1697.1z M2705.5,1638.6     c3.7,1.9,73.8,37.3,84.3,42c4,1.8,8.1,4.1,11.7,6.1c3.9,2.2,9.1,5.1,10.9,5.3c1.9-2.4,9.2-13.3,15.7-23     c6-8.9,12.2-18.1,15.9-23.4c4.8-6.8,13.5-19.2,13.6-22.6c-3.1-1.7-20.9-10.7-39.7-20.2c-27.9-14.1-59.5-30.1-67.2-34.3l-1.6-0.9     c-12.7-7-13.9-7.4-16.8-4.9c-3.5,3.6-19.8,49.1-25.1,64.1c-2,5.7-3,8.5-3.3,9.2C2703.4,1637.1,2705.2,1638.4,2705.5,1638.6z" class="color141618 svgShape"/><g><path fill="#ffffff" d="M2788.3,1606.4c-5.4-2.3-17-8.2-28.6,4.3s-7.5,30.8,6.7,38.4c14.2,7.5,32.5-0.7,35.5-17.7    C2804.9,1614.6,2793.5,1608.7,2788.3,1606.4z" class="colorfff svgShape"/><path fill="#141618" d="M2777.7,1654.4c-4.3,0-8.6-1-12.4-3.1c-7.7-4.1-13-11.2-14.4-19.5c-1.4-8.1,1.2-16.4,7-22.8    c12.3-13.4,25.2-7.7,30.7-5.2l0.7,0.3c0,0,0,0,0,0c12.3,5.4,17.4,14.7,15.1,27.8c-1.5,8.7-6.9,15.9-14.8,19.8    C2785.8,1653.5,2781.7,1654.4,2777.7,1654.4z M2775.6,1605.5c-4.3,0-9.1,1.6-14,7c-4.9,5.3-6.9,11.9-5.8,18.5    c1.2,6.8,5.4,12.6,11.8,16c6.1,3.2,13.5,3.3,19.8,0.2c6.4-3.1,10.8-9,12.1-16.1c2.8-15.9-8.5-20.7-12.2-22.4l-0.7-0.3    C2783.7,1607.1,2779.9,1605.5,2775.6,1605.5z" class="color141618 svgShape"/></g></g></svg>